<?xml version="1.0" encoding="utf-8"?>
<!-- Generator: Adobe Illustrator 16.0.0, SVG Export Plug-In . SVG Version: 6.00 Build 0)  -->
<!DOCTYPE svg PUBLIC "-//W3C//DTD SVG 1.1//EN" "http://www.w3.org/Graphics/SVG/1.1/DTD/svg11.dtd">
<svg version="1.1" id="Layer_1" xmlns="http://www.w3.org/2000/svg" xmlns:xlink="http://www.w3.org/1999/xlink" x="0px" y="0px"
	 width="1218px" height="400px" viewBox="0 0 1218 400" enable-background="new 0 0 1218 400" xml:space="preserve">
<g>
	<defs>
		<rect id="SVGID_1_" x="-166" y="-193.226" width="1550" height="786.454"/>
	</defs>
	<clipPath id="SVGID_2_">
		<use xlink:href="#SVGID_1_"  overflow="visible"/>
	</clipPath>
	<path clip-path="url(#SVGID_2_)" fill="#F69863" d="M482.65,133.911l3.909-4.039l-5.329-1.778
		c-21.98-7.319-45.796-5.315-66.005,4.875c-2.584-4.05-5.307-8.081-8.016-12.077c-9.787-14.444-19.035-28.086-19.035-39.333
		l-0.196-3.536h-7.072v3.536c0,11.255-9.207,24.898-18.952,39.343c-2.703,4.006-5.421,8.046-8.001,12.107
		c-20.229-10.226-44.077-12.245-66.08-4.916l-5.331,1.778l3.91,4.039c8.715,9.001,10.129,21.875,11.621,35.505
		c1.631,14.863,3.315,30.229,14.414,42.512c12.699,14.056,33.391,21.983,55.6,21.983c5.428,0,10.947-0.521,16.464-1.497
		c5.517,0.976,11.034,1.497,16.461,1.497c22.208,0,42.904-7.928,55.603-21.983c11.098-12.284,12.781-27.649,14.413-42.512
		C472.522,155.785,473.936,142.912,482.65,133.911"/>
	<path clip-path="url(#SVGID_2_)" d="M46.324,208.851c14.756,17.669,33.015,20.865,44.185,20.865c45,0,64.123-36.339,67.545-45.254
		c3.418-8.917,5.133-18.238,5.133-27.966c0-9.726-1.613-19.085-5.133-27.964c-13.883-35.028-45.827-45.772-67.545-45.253
		c-10.985,0.262-25.339,2.444-40.673,16.754V29.784H20.118v197.229h26.206V208.851z M51.738,137.989
		c2.254-5.85,5.27-10.941,9.052-15.263c3.783-4.326,8.241-7.745,13.372-10.266c5.135-2.523,10.582-3.785,16.348-3.785
		c5.944,0,11.485,1.215,16.615,3.647c5.136,2.431,9.594,5.81,13.376,10.132c3.78,4.321,6.754,9.415,8.916,15.266
		c2.16,5.854,3.242,12.115,3.242,18.775c0,6.847-1.083,13.152-3.242,18.914c-2.161,5.766-5.135,10.808-8.916,15.13
		c-3.782,4.321-8.24,7.701-13.376,10.131c-5.129,2.433-10.67,3.648-16.615,3.648c-5.946,0-11.484-1.216-16.615-3.648
		c-5.135-2.43-9.593-5.762-13.375-9.996c-3.783-4.231-6.754-9.229-8.916-14.995c-2.162-5.762-3.242-12.065-3.242-18.914
		C48.362,150.104,49.483,143.847,51.738,137.989"/>
	<path clip-path="url(#SVGID_2_)" d="M252.681,201.887c-2.614,0.725-4.908,1.081-6.89,1.081c-4.861,0-8.644-1.486-11.348-4.456
		c-2.701-2.973-4.052-7.068-4.052-12.295V29.783h-29.718v167.241c0,10.266,2.836,18.196,8.511,23.777
		c5.67,5.585,13.642,8.375,23.909,8.375c4.681,0,9.997-0.587,15.941-1.755c5.945-1.173,11.078-2.745,15.399-4.729l-4.322-23.237
		C257.768,200.361,255.29,201.17,252.681,201.887"/>
	<path clip-path="url(#SVGID_2_)" d="M572.322,229.716c17.467,0,31.293-3.918,41.473-11.752
		c10.176-7.835,15.265-18.509,15.265-32.018c0-5.944-1.081-11.032-3.241-15.265c-2.162-4.229-5.495-7.925-9.999-11.077
		c-4.5-3.148-10.225-5.896-17.155-8.24c-6.936-2.338-15.176-4.683-24.721-7.027c-5.767-1.437-10.584-2.743-14.454-3.915
		c-3.876-1.172-7.026-2.476-9.457-3.918c-2.432-1.439-4.188-3.15-5.269-5.135c-1.08-1.979-1.621-4.41-1.621-7.294
		c0-6.842,2.565-11.841,7.701-14.995c5.132-3.147,11.483-4.729,19.047-4.729c14.769,0,28.727,5.229,41.878,15.671l12.697-17.83
		c-7.207-6.122-15.397-10.808-24.586-14.049c-9.188-3.243-19.094-4.864-29.72-4.864c-7.747,0-14.953,0.991-21.615,2.973
		c-6.664,1.983-12.473,4.91-17.425,8.779c-4.957,3.875-8.827,8.604-11.616,14.184c-2.797,5.587-4.188,11.98-4.188,19.186
		c0,5.403,0.897,9.996,2.701,13.778c1.797,3.783,4.682,7.116,8.646,9.996c3.96,2.885,9.092,5.404,15.399,7.565
		c6.303,2.162,13.869,4.416,22.697,6.755c12.245,3.24,21.249,6.213,27.017,8.915c5.761,2.702,8.646,7.025,8.646,12.969
		c0,6.309-2.565,11.169-7.701,14.589c-5.132,3.425-12.115,5.133-20.937,5.133c-8.646,0-17.116-1.574-25.397-4.728
		c-8.287-3.148-16.663-7.789-25.126-13.915l-11.89,18.913c8.106,6.85,17.787,12.117,29.044,15.805
		C549.669,227.865,560.975,229.716,572.322,229.716"/>
	<path clip-path="url(#SVGID_2_)" d="M761.982,159.603c-4.501-3.147-10.224-5.896-17.154-8.239
		c-6.937-2.337-15.176-4.684-24.723-7.026c-5.767-1.438-10.582-2.744-14.451-3.916c-3.878-1.17-7.029-2.475-9.459-3.917
		c-2.432-1.44-4.188-3.151-5.268-5.135c-1.079-1.979-1.622-4.409-1.622-7.294c0-6.842,2.565-11.841,7.701-14.995
		c5.132-3.148,11.483-4.729,19.049-4.729c14.766,0,28.726,5.229,41.876,15.67l12.697-17.829
		c-7.207-6.124-15.398-10.809-24.587-14.049c-9.186-3.244-19.095-4.863-29.719-4.863c-7.746,0-14.953,0.989-21.613,2.972
		c-6.667,1.983-12.476,4.909-17.429,8.779c-4.955,3.875-8.825,8.603-11.615,14.185c-2.796,5.586-4.189,11.98-4.189,19.184
		c0,5.404,0.897,9.996,2.703,13.778c1.797,3.784,4.683,7.118,8.645,9.996c3.962,2.885,9.095,5.404,15.4,7.566
		c6.303,2.162,13.867,4.414,22.697,6.754c12.243,3.241,21.251,6.213,27.016,8.915c5.762,2.702,8.647,7.026,8.647,12.969
		c0,6.309-2.567,11.169-7.703,14.59c-5.13,3.425-12.113,5.133-20.936,5.133c-8.646,0-17.117-1.575-25.398-4.728
		c-8.287-3.148-16.661-7.789-25.125-13.916l-11.892,18.914c8.109,6.849,17.79,12.116,29.047,15.805
		c11.253,3.69,22.561,5.539,33.908,5.539c17.467,0,31.293-3.917,41.473-11.751c10.176-7.837,15.265-18.51,15.265-32.017
		c0-5.946-1.083-11.032-3.241-15.267C769.819,166.453,766.487,162.757,761.982,159.603"/>
	<path clip-path="url(#SVGID_2_)" d="M944.352,184.461c3.418-8.916,5.133-18.239,5.133-27.966c0-9.726-1.715-19.045-5.133-27.964
		c-3.425-8.914-8.331-16.702-14.727-23.369c-6.395-6.661-14.049-11.977-22.964-15.941c-8.914-3.958-18.871-5.941-29.854-5.941
		c-10.99,0-20.939,1.983-29.855,5.941c-8.916,3.965-16.571,9.281-22.965,15.941c-6.396,6.667-11.303,14.455-14.725,23.369
		c-3.425,8.919-5.135,18.239-5.135,27.964c0,9.727,1.71,19.05,5.135,27.966c3.422,8.915,8.282,16.708,14.59,23.372
		c6.302,6.666,13.916,11.98,22.829,15.938c8.918,3.96,18.955,5.944,30.126,5.944c10.983,0,20.94-1.984,29.854-5.944
		c8.915-3.957,16.569-9.271,22.964-15.938C936.021,201.17,940.927,193.376,944.352,184.461 M915.712,175.409
		c-2.161,5.768-5.132,10.809-8.914,15.131c-3.783,4.321-8.241,7.701-13.377,10.131c-5.132,2.433-10.67,3.648-16.614,3.648
		c-5.943,0-11.483-1.216-16.615-3.648c-5.134-2.431-9.592-5.761-13.376-9.996c-3.781-4.231-6.755-9.228-8.914-14.995
		c-2.162-5.761-3.242-12.065-3.242-18.913c0-6.664,1.121-12.92,3.376-18.778c2.252-5.848,5.271-10.941,9.054-15.262
		c3.782-4.325,8.239-7.745,13.371-10.266c5.134-2.521,10.579-3.783,16.347-3.783c5.944,0,11.482,1.213,16.614,3.647
		c5.136,2.43,9.594,5.809,13.377,10.13c3.782,4.323,6.753,9.415,8.914,15.266c2.161,5.855,3.243,12.117,3.243,18.776
		C918.955,163.345,917.873,169.648,915.712,175.409"/>
	<path clip-path="url(#SVGID_2_)" d="M1194.269,100.569c-3.245-5.223-7.615-9.41-13.105-12.562
		c-5.497-3.151-12.387-4.729-20.668-4.729c-11.53,0-21.796,2.747-30.8,8.24c-9.009,5.496-16.481,13.468-22.427,23.911
		c-1.622-9.187-5.811-16.84-12.564-22.965c-6.752-6.12-15.986-9.186-27.692-9.186c-11.707,0-22.11,2.66-31.208,7.968
		c-9.094,5.316-16.438,12.93-22.018,22.832v-28.37h-27.019v141.303h29.721v-84.024c3.06-9.902,8.105-17.919,15.129-24.045
		c7.025-6.123,14.77-9.188,23.234-9.188c8.105,0,14.322,3.019,18.644,9.053c4.323,6.035,6.483,15.718,6.483,29.044v79.161h29.721
		v-83.753c3.064-9.906,8.061-17.967,14.998-24.181c6.93-6.216,14.63-9.323,23.1-9.323c8.282,0,14.588,3.065,18.91,9.188
		c4.325,6.126,6.484,15.764,6.484,28.909v79.161h29.722v-86.187c0-7.739-0.636-15.082-1.892-22.018
		C1199.757,111.875,1197.508,105.797,1194.269,100.569"/>
	<path clip-path="url(#SVGID_2_)" d="M385.684,230.597h-2.102l-0.812-0.463c-23.227-13.182-43.287-24.561-43.575-58.274
		c-0.146-17.012,11.499-34.27,22.761-50.957c9.745-14.445,18.951-28.088,18.951-39.343v-3.536h7.072l0.197,3.536
		c0,11.246,9.246,24.889,19.035,39.332c11.311,16.693,23.01,33.952,22.863,50.969c-0.287,33.714-20.348,45.099-43.578,58.274
		L385.684,230.597z M384.549,96.591c-3.757,9.034-10.126,18.478-16.732,28.267c-10.658,15.794-21.679,32.125-21.551,46.943
		c0.236,27.579,14.691,37.752,38.368,51.256c23.676-13.504,38.131-23.678,38.368-51.256c0.125-14.814-10.941-31.146-21.646-46.94
		C394.721,115.069,388.321,105.625,384.549,96.591"/>
	<path clip-path="url(#SVGID_2_)" d="M368.087,233.911c-22.21,0-42.9-7.929-55.6-21.983c-11.099-12.284-12.781-27.648-14.413-42.512
		c-1.493-13.63-2.907-26.504-11.622-35.505l-3.911-4.038l5.332-1.779c29.018-9.668,61.266-3.104,84.156,17.154
		c6.01,5.323,11.23,11.421,15.513,18.129l-5.961,3.804c-3.929-6.152-8.721-11.753-14.237-16.636
		c-19.697-17.428-46.95-23.815-72.219-17.227c7.223,10.185,8.624,22.941,9.979,35.326c1.507,13.744,3.066,27.957,12.632,38.544
		c14.185,15.698,40.977,22.983,66.675,18.111l1.317,6.948C379.82,233.369,373.901,233.911,368.087,233.911"/>
	<path clip-path="url(#SVGID_2_)" d="M401.013,233.911c-5.815,0-11.731-0.542-17.638-1.664l1.317-6.948
		c25.704,4.889,52.491-2.413,66.674-18.111c9.566-10.587,11.125-24.8,12.632-38.544c1.357-12.385,2.756-25.142,9.979-35.326
		c-25.27-6.588-52.526-0.208-72.217,17.227c-5.526,4.89-10.316,10.487-14.24,16.636l-5.96-3.804
		c4.277-6.702,9.494-12.801,15.513-18.129c22.884-20.252,55.13-26.822,84.157-17.154l5.33,1.779l-3.91,4.038
		c-8.715,9.001-10.127,21.875-11.621,35.505c-1.631,14.864-3.315,30.229-14.413,42.512
		C443.916,225.982,423.22,233.911,401.013,233.911"/>
	<rect x="381.098" y="163.592" clip-path="url(#SVGID_2_)" width="7.072" height="61.596"/>
</g>
<g>
	<path d="M97.208,322.293c0-3.248,0.587-6.456,1.761-9.628c1.173-3.172,2.886-6.007,5.133-8.505
		c2.248-2.498,4.995-4.521,8.243-6.069c3.246-1.549,6.942-2.323,11.088-2.323c4.896,0,9.129,1.076,12.702,3.222
		c3.57,2.148,6.23,4.945,7.98,8.392l-7.943,5.471c-0.7-1.499-1.549-2.76-2.547-3.784c-1-1.023-2.074-1.836-3.222-2.436
		c-1.15-0.6-2.349-1.036-3.597-1.311c-1.25-0.273-2.473-0.412-3.671-0.412c-2.598,0-4.859,0.525-6.782,1.573
		c-1.923,1.05-3.522,2.41-4.795,4.084c-1.274,1.674-2.236,3.571-2.885,5.693c-0.65,2.124-0.974,4.233-0.974,6.332
		c0,2.349,0.375,4.609,1.124,6.78c0.75,2.174,1.811,4.084,3.185,5.733c1.374,1.647,3.021,2.973,4.945,3.972
		c1.922,1,4.034,1.497,6.332,1.497c1.198,0,2.447-0.15,3.747-0.448c1.298-0.301,2.535-0.774,3.709-1.423
		c1.173-0.649,2.259-1.488,3.259-2.511c0.999-1.023,1.798-2.26,2.398-3.71l8.467,4.87c-0.85,1.999-2.061,3.76-3.634,5.283
		c-1.574,1.525-3.347,2.81-5.32,3.858c-1.974,1.049-4.083,1.85-6.331,2.398c-2.248,0.549-4.447,0.823-6.593,0.823
		c-3.798,0-7.269-0.798-10.416-2.397c-3.146-1.599-5.857-3.682-8.129-6.256c-2.273-2.571-4.046-5.494-5.32-8.767
		C97.845,329.024,97.208,325.689,97.208,322.293z"/>
	<path d="M213.723,296.066v53.2h-10.265v-22.703H179.33v22.703h-10.34v-53.2h10.34v21.506h24.127v-21.506H213.723z"/>
	<path d="M241.896,349.267v-53.2h10.34v53.2H241.896z"/>
	<path d="M280.484,349.267v-53.2h10.34v44.135h27.124v9.065H280.484z"/>
	<path d="M341.327,349.267v-53.2h19.332c4.346,0,8.155,0.701,11.426,2.099c3.271,1.399,6.007,3.298,8.205,5.694
		c2.198,2.398,3.847,5.208,4.946,8.43c1.098,3.222,1.648,6.657,1.648,10.303c0,4.047-0.612,7.706-1.835,10.978
		c-1.225,3.272-2.986,6.069-5.283,8.392c-2.298,2.323-5.058,4.122-8.28,5.396c-3.222,1.273-6.832,1.909-10.827,1.909H341.327z
		 M376.469,322.592c0-2.548-0.35-4.895-1.048-7.043c-0.701-2.147-1.724-3.996-3.073-5.545c-1.349-1.549-3.01-2.747-4.982-3.598
		c-1.975-0.848-4.21-1.273-6.707-1.273h-8.992v35.068h8.992c2.548,0,4.807-0.45,6.781-1.35c1.973-0.897,3.621-2.136,4.945-3.709
		c1.323-1.573,2.334-3.433,3.036-5.581C376.119,327.413,376.469,325.091,376.469,322.592z"/>
	<path d="M412.134,349.267v-53.2h23.527c2.448,0,4.709,0.514,6.782,1.537c2.071,1.024,3.859,2.373,5.356,4.047
		c1.499,1.673,2.672,3.571,3.522,5.693c0.85,2.124,1.274,4.259,1.274,6.406c0,3.447-0.862,6.582-2.584,9.403
		c-1.725,2.823-4.061,4.858-7.006,6.108l12.138,20.005h-11.614l-10.864-17.832h-10.191v17.832H412.134z M422.474,322.367h12.963
		c0.948,0,1.835-0.224,2.66-0.674s1.535-1.061,2.135-1.836c0.6-0.774,1.074-1.688,1.424-2.735c0.349-1.049,0.524-2.173,0.524-3.372
		c0-1.248-0.2-2.397-0.599-3.446c-0.401-1.048-0.937-1.959-1.611-2.735c-0.674-0.773-1.45-1.372-2.322-1.798
		c-0.875-0.424-1.762-0.638-2.66-0.638h-12.514V322.367z"/>
	<path d="M515.985,340.201v9.065h-36.94v-53.2h36.266v9.066h-25.925v12.813h22.403v8.392h-22.403v13.863H515.985z"/>
	<path d="M551.502,315.175v34.092h-10.341v-53.2h8.018l27.725,34.919v-34.844h10.34v53.125h-8.393L551.502,315.175z"/>
	<path d="M615.191,313.376l1.648-9.143h-2.998v-10.114h10.116v10.265l-2.698,8.992H615.191z"/>
	<path d="M682.027,310.004c-0.35-0.349-0.986-0.824-1.91-1.423c-0.926-0.6-2.049-1.187-3.372-1.763
		c-1.324-0.572-2.76-1.061-4.31-1.461c-1.548-0.398-3.122-0.599-4.719-0.599c-2.849,0-4.973,0.524-6.369,1.573
		c-1.399,1.049-2.099,2.523-2.099,4.42c0,1.101,0.263,2.014,0.786,2.735c0.525,0.726,1.285,1.362,2.286,1.913
		c0.998,0.548,2.26,1.049,3.783,1.496c1.523,0.451,3.285,0.927,5.282,1.424c2.599,0.701,4.957,1.45,7.082,2.25
		c2.122,0.798,3.921,1.797,5.395,2.996c1.474,1.198,2.609,2.636,3.408,4.309c0.801,1.674,1.199,3.735,1.199,6.182
		c0,2.848-0.538,5.282-1.609,7.305c-1.075,2.023-2.525,3.66-4.348,4.908c-1.824,1.248-3.921,2.161-6.294,2.735
		s-4.858,0.861-7.454,0.861c-3.997,0-7.942-0.6-11.841-1.799c-3.896-1.197-7.393-2.896-10.489-5.095l4.571-8.916
		c0.449,0.448,1.261,1.036,2.435,1.76c1.174,0.726,2.559,1.45,4.159,2.174c1.598,0.725,3.372,1.337,5.32,1.835
		c1.947,0.5,3.945,0.749,5.993,0.749c5.695,0,8.543-1.823,8.543-5.469c0-1.148-0.326-2.122-0.975-2.923
		c-0.649-0.797-1.572-1.498-2.773-2.098c-1.198-0.599-2.647-1.148-4.344-1.647c-1.7-0.501-3.598-1.05-5.696-1.65
		c-2.546-0.697-4.758-1.461-6.63-2.284c-1.873-0.824-3.437-1.799-4.683-2.923c-1.251-1.123-2.187-2.422-2.811-3.897
		c-0.625-1.471-0.938-3.233-0.938-5.28c0-2.699,0.499-5.096,1.5-7.194c0.997-2.098,2.385-3.846,4.157-5.244
		c1.773-1.399,3.833-2.46,6.182-3.185c2.348-0.724,4.87-1.087,7.568-1.087c3.746,0,7.193,0.587,10.34,1.761
		c3.148,1.175,5.895,2.562,8.242,4.159L682.027,310.004z"/>
	<path d="M745.342,322.293c0-3.248,0.586-6.456,1.761-9.628c1.173-3.172,2.884-6.007,5.133-8.505
		c2.248-2.498,4.993-4.521,8.24-6.069c3.248-1.549,6.944-2.323,11.092-2.323c4.894,0,9.128,1.076,12.699,3.222
		c3.571,2.148,6.23,4.945,7.98,8.392l-7.943,5.471c-0.699-1.499-1.548-2.76-2.548-3.784c-1-1.023-2.073-1.836-3.221-2.436
		c-1.149-0.6-2.35-1.036-3.597-1.311c-1.249-0.273-2.472-0.412-3.673-0.412c-2.597,0-4.857,0.525-6.78,1.573
		c-1.923,1.05-3.521,2.41-4.795,4.084c-1.274,1.674-2.235,3.571-2.886,5.693c-0.649,2.124-0.974,4.233-0.974,6.332
		c0,2.349,0.376,4.609,1.124,6.78c0.749,2.174,1.81,4.084,3.186,5.733c1.372,1.647,3.02,2.973,4.943,3.972
		c1.923,1,4.034,1.497,6.333,1.497c1.199,0,2.446-0.15,3.747-0.448c1.297-0.301,2.533-0.774,3.708-1.423
		c1.173-0.649,2.259-1.488,3.26-2.511c0.999-1.023,1.797-2.26,2.396-3.71l8.467,4.87c-0.849,1.999-2.06,3.76-3.633,5.283
		c-1.574,1.525-3.347,2.81-5.32,3.858s-4.085,1.85-6.331,2.398c-2.247,0.549-4.447,0.823-6.595,0.823
		c-3.795,0-7.268-0.798-10.415-2.397c-3.146-1.599-5.856-3.682-8.129-6.256c-2.273-2.571-4.045-5.494-5.319-8.767
		C745.979,329.024,745.342,325.689,745.342,322.293z"/>
	<path d="M854.063,340.201v9.065h-36.939v-53.2h36.266v9.066h-25.927v12.813h22.405v8.392h-22.405v13.863H854.063z"/>
	<path d="M889.655,315.175v34.092h-10.341v-53.2h8.018l27.724,34.919v-34.844h10.341v53.125h-8.393L889.655,315.175z"/>
	<path d="M993.428,305.133h-17.006v44.134h-10.266v-44.134h-17.011v-9.066h44.282V305.133z"/>
	<path d="M1054.121,340.201v9.065h-36.939v-53.2h36.265v9.066h-25.924v12.813h22.403v8.392h-22.403v13.863H1054.121z"/>
	<path d="M1079.298,349.267v-53.2h23.528c2.446,0,4.708,0.514,6.781,1.537c2.073,1.024,3.857,2.373,5.356,4.047
		c1.5,1.673,2.673,3.571,3.522,5.693c0.848,2.124,1.273,4.259,1.273,6.406c0,3.447-0.862,6.582-2.584,9.403
		c-1.725,2.823-4.06,4.858-7.007,6.108l12.139,20.005h-11.615l-10.864-17.832h-10.189v17.832H1079.298z M1089.639,322.367h12.963
		c0.947,0,1.836-0.224,2.658-0.674c0.824-0.45,1.536-1.061,2.137-1.836c0.6-0.774,1.072-1.688,1.424-2.735
		c0.35-1.049,0.523-2.173,0.523-3.372c0-1.248-0.199-2.397-0.598-3.446c-0.4-1.048-0.938-1.959-1.611-2.735
		c-0.675-0.773-1.449-1.372-2.324-1.798c-0.872-0.424-1.76-0.638-2.658-0.638h-12.514V322.367z"/>
</g>
</svg>
